#N canvas 689 56 450 489 10;
#X obj 94 26 adc~;
#X obj 91 317 *~;
#X obj 126 289 line~;
#X msg 126 265 \$1 300;
#X obj 176 267 vsl 15 30 0.01 1 1 0 empty empty empty 0 -9 0 10 -262144
-1 -1 0 1;
#X obj 176 241 r vol;
#X floatatom 316 106 5 0 0 0 - - -, f 5;
#X obj 84 168 mtof;
#X obj 84 194 osc~;
#X obj 78 243 +~;
#X obj 78 272 osc~;
#X obj 90 419 dac~;
#X obj 85 219 *~;
#X floatatom 139 192 5 100 6000 0 - - -, f 5;
#X msg 299 186 \; pd dsp 1;
#X msg 301 226 \; pd dsp 0;
#X floatatom 176 310 5 0 0 0 - - -, f 5;
#X floatatom 72 106 5 0 0 0 - - -, f 5;
#X floatatom 229 179 5 0 0 0 - - -, f 5;
#X msg 135 58 minpower \$1;
#X floatatom 139 29 5 0 0 0 - - -, f 5;
#X obj 72 84 sigmund~ -minpower 65 -hop 44100 pitch env;
#X obj 184 157 moses 100;
#X obj 151 137 tgl 15 0 empty empty empty 17 7 0 10 -262144 -1 -1 0
1;
#X obj 193 203 line;
#X obj 184 109 metro 1000;
#X msg 230 199 \$1 350;
#X obj 103 394 delread~ voice 200;
#X obj 118 368 *~ 0.5;
#X obj 101 343 delwrite~ voice 1000;
#X obj 184 132 random 6000;
#X obj 233 34 loadbang;
#X msg 184 26 56;
#X floatatom 280 151 5 250 5000 0 - - -, f 5;
#X obj 276 128 r modspeed;
#X obj 131 112 r stmod;
#X connect 0 0 21 0;
#X connect 0 0 1 0;
#X connect 1 0 29 0;
#X connect 2 0 1 1;
#X connect 3 0 2 0;
#X connect 4 0 3 0;
#X connect 4 0 16 0;
#X connect 5 0 4 0;
#X connect 7 0 8 0;
#X connect 8 0 12 0;
#X connect 9 0 10 0;
#X connect 12 0 9 0;
#X connect 13 0 12 1;
#X connect 17 0 7 0;
#X connect 18 0 26 0;
#X connect 19 0 21 0;
#X connect 20 0 19 0;
#X connect 21 0 17 0;
#X connect 21 1 6 0;
#X connect 22 1 18 0;
#X connect 23 0 25 0;
#X connect 24 0 13 0;
#X connect 25 0 30 0;
#X connect 26 0 24 0;
#X connect 27 0 28 0;
#X connect 27 0 11 0;
#X connect 27 0 11 1;
#X connect 28 0 29 0;
#X connect 30 0 22 0;
#X connect 31 0 32 0;
#X connect 32 0 20 0;
#X connect 33 0 25 1;
#X connect 34 0 33 0;
#X connect 35 0 23 0;
